<svg xmlns="http://www.w3.org/2000/svg" version="1.1" xmlns:xlink="http://www.w3.org/1999/xlink" width="1000" height="1000"><style>
    #light-icon {
      display: inline;
    }
    #dark-icon {
      display: none;
    }

    @media (prefers-color-scheme: dark) {
      #light-icon {
        display: none;
      }
      #dark-icon {
        display: inline;
      }
    }
  </style><g id="light-icon"><svg xmlns="http://www.w3.org/2000/svg" version="1.1" xmlns:xlink="http://www.w3.org/1999/xlink" width="1000" height="1000"><g clip-path="url(#SvgjsClipPath1093)"><rect width="1000" height="1000" fill="#ffffff"></rect><g transform="matrix(2,0,0,2,0,0)"><svg xmlns="http://www.w3.org/2000/svg" version="1.1" xmlns:xlink="http://www.w3.org/1999/xlink" width="500" height="500"><svg xmlns="http://www.w3.org/2000/svg" xmlns:xlink="http://www.w3.org/1999/xlink" width="500" zoomAndPan="magnify" viewBox="0 0 375 374.999991" height="500" preserveAspectRatio="xMidYMid meet" version="1.0"><defs><g></g><clipPath id="1e9fd1e57d"><path d="M 17.25 0 L 357.75 0 C 362.324219 0 366.710938 1.816406 369.949219 5.050781 C 373.183594 8.289062 375 12.675781 375 17.25 L 375 357.75 C 375 362.324219 373.183594 366.710938 369.949219 369.949219 C 366.710938 373.183594 362.324219 375 357.75 375 L 17.25 375 C 12.675781 375 8.289062 373.183594 5.050781 369.949219 C 1.816406 366.710938 0 362.324219 0 357.75 L 0 17.25 C 0 12.675781 1.816406 8.289062 5.050781 5.050781 C 8.289062 1.816406 12.675781 0 17.25 0 Z M 17.25 0 " clip-rule="nonzero"></path></clipPath><clipPath id="069a55b645"><path d="M 0 0 L 375 0 L 375 375 L 0 375 Z M 0 0 " clip-rule="nonzero"></path></clipPath><clipPath id="d06c1b9c95"><path d="M 17.25 0 L 357.75 0 C 362.324219 0 366.710938 1.816406 369.949219 5.050781 C 373.183594 8.289062 375 12.675781 375 17.25 L 375 357.75 C 375 362.324219 373.183594 366.710938 369.949219 369.949219 C 366.710938 373.183594 362.324219 375 357.75 375 L 17.25 375 C 12.675781 375 8.289062 373.183594 5.050781 369.949219 C 1.816406 366.710938 0 362.324219 0 357.75 L 0 17.25 C 0 12.675781 1.816406 8.289062 5.050781 5.050781 C 8.289062 1.816406 12.675781 0 17.25 0 Z M 17.25 0 " clip-rule="nonzero"></path></clipPath><clipPath id="13bb6fef7c"><rect x="0" width="375" y="0" height="375"></rect></clipPath><clipPath id="5de8541959"><rect x="0" width="303" y="0" height="270"></rect></clipPath><clipPath id="SvgjsClipPath1093"><rect width="1000" height="1000" x="0" y="0" rx="150" ry="150"></rect></clipPath></defs><g clip-path="url(#1e9fd1e57d)"><g transform="matrix(1, 0, 0, 1, 0, 0)"><g clip-path="url(#13bb6fef7c)"><g clip-path="url(#069a55b645)"><g clip-path="url(#d06c1b9c95)"><rect x="-82.5" width="540" fill="#000000" height="539.999987" y="-82.499998" fill-opacity="1"></rect></g></g></g></g></g><g transform="matrix(1, 0, 0, 1, 63, 52)"><g clip-path="url(#5de8541959)"><g fill="#ffffff" fill-opacity="1"><g transform="translate(1.338421, 211.116808)"><g><path d="M 5.71875 -12.296875 C 9.914062 -10.390625 14.300781 -9.289062 18.875 -9 C 23.445312 -8.71875 27.398438 -9.53125 30.734375 -11.4375 C 34.078125 -13.34375 35.75 -16.394531 35.75 -20.59375 L 38.046875 -84.65625 L 5.71875 -87.234375 L 5.71875 -139.578125 L 99.53125 -139.578125 L 98.390625 -14.59375 C 98.203125 -2.195312 95.242188 8.476562 89.515625 17.4375 C 83.796875 26.40625 76.359375 33.175781 67.203125 37.75 C 58.054688 42.332031 48.097656 44.429688 37.328125 44.046875 C 26.554688 43.660156 16.019531 40.320312 5.71875 34.03125 Z M 43.765625 -170.46875 C 43.765625 -176.945312 45.957031 -182.425781 50.34375 -186.90625 C 54.726562 -191.382812 60.160156 -193.625 66.640625 -193.625 C 73.117188 -193.625 78.597656 -191.382812 83.078125 -186.90625 C 87.566406 -182.425781 89.8125 -176.945312 89.8125 -170.46875 C 89.8125 -164.175781 87.566406 -158.785156 83.078125 -154.296875 C 78.597656 -149.816406 73.117188 -147.578125 66.640625 -147.578125 C 60.160156 -147.578125 54.726562 -149.816406 50.34375 -154.296875 C 45.957031 -158.785156 43.765625 -164.175781 43.765625 -170.46875 Z M 43.765625 -170.46875 "></path></g></g></g><g fill="#ffffff" fill-opacity="1"><g transform="translate(124.32468, 211.116808)"><g><path d="M 8.296875 39.46875 L 5.71875 -64.359375 L 7.71875 -139.296875 L 55.484375 -139.296875 L 56.921875 -124.984375 C 60.734375 -130.140625 65.785156 -134.476562 72.078125 -138 C 78.367188 -141.53125 86.1875 -143.296875 95.53125 -143.296875 C 114.21875 -143.296875 128.753906 -137.625 139.140625 -126.28125 C 149.535156 -114.9375 154.539062 -97.726562 154.15625 -74.65625 C 154.15625 -59.207031 152.34375 -45.90625 148.71875 -34.75 C 145.101562 -23.59375 139.050781 -15.054688 130.5625 -9.140625 C 122.082031 -3.234375 110.5 -0.28125 95.8125 -0.28125 C 88.375 -0.28125 81.84375 -1.328125 76.21875 -3.421875 C 70.59375 -5.523438 65.6875 -8.296875 61.5 -11.734375 L 60.0625 39.46875 Z M 69.5 -58.640625 C 69.5 -54.253906 70.785156 -50.960938 73.359375 -48.765625 C 75.929688 -46.566406 79.03125 -45.46875 82.65625 -45.46875 C 86.28125 -45.46875 89.332031 -46.46875 91.8125 -48.46875 C 94.289062 -50.476562 95.53125 -53.867188 95.53125 -58.640625 C 95.53125 -63.210938 94.289062 -66.40625 91.8125 -68.21875 C 89.332031 -70.03125 86.28125 -70.9375 82.65625 -70.9375 C 79.03125 -70.9375 75.929688 -69.835938 73.359375 -67.640625 C 70.785156 -65.453125 69.5 -62.453125 69.5 -58.640625 Z M 69.5 -58.640625 "></path></g></g></g></g></g></svg></svg></g></g></svg></g><g id="dark-icon"><svg xmlns="http://www.w3.org/2000/svg" version="1.1" xmlns:xlink="http://www.w3.org/1999/xlink" width="1000" height="1000"><g><g transform="matrix(2,0,0,2,0,0)" style="filter: invert(100%)"><svg xmlns="http://www.w3.org/2000/svg" version="1.1" xmlns:xlink="http://www.w3.org/1999/xlink" width="500" height="500"><svg xmlns="http://www.w3.org/2000/svg" xmlns:xlink="http://www.w3.org/1999/xlink" width="500" zoomAndPan="magnify" viewBox="0 0 375 374.999991" height="500" preserveAspectRatio="xMidYMid meet" version="1.0"><defs><g></g><clipPath id="1e9fd1e57d"><path d="M 17.25 0 L 357.75 0 C 362.324219 0 366.710938 1.816406 369.949219 5.050781 C 373.183594 8.289062 375 12.675781 375 17.25 L 375 357.75 C 375 362.324219 373.183594 366.710938 369.949219 369.949219 C 366.710938 373.183594 362.324219 375 357.75 375 L 17.25 375 C 12.675781 375 8.289062 373.183594 5.050781 369.949219 C 1.816406 366.710938 0 362.324219 0 357.75 L 0 17.25 C 0 12.675781 1.816406 8.289062 5.050781 5.050781 C 8.289062 1.816406 12.675781 0 17.25 0 Z M 17.25 0 " clip-rule="nonzero"></path></clipPath><clipPath id="069a55b645"><path d="M 0 0 L 375 0 L 375 375 L 0 375 Z M 0 0 " clip-rule="nonzero"></path></clipPath><clipPath id="d06c1b9c95"><path d="M 17.25 0 L 357.75 0 C 362.324219 0 366.710938 1.816406 369.949219 5.050781 C 373.183594 8.289062 375 12.675781 375 17.25 L 375 357.75 C 375 362.324219 373.183594 366.710938 369.949219 369.949219 C 366.710938 373.183594 362.324219 375 357.75 375 L 17.25 375 C 12.675781 375 8.289062 373.183594 5.050781 369.949219 C 1.816406 366.710938 0 362.324219 0 357.75 L 0 17.25 C 0 12.675781 1.816406 8.289062 5.050781 5.050781 C 8.289062 1.816406 12.675781 0 17.25 0 Z M 17.25 0 " clip-rule="nonzero"></path></clipPath><clipPath id="13bb6fef7c"><rect x="0" width="375" y="0" height="375"></rect></clipPath><clipPath id="5de8541959"><rect x="0" width="303" y="0" height="270"></rect></clipPath></defs><g clip-path="url(#1e9fd1e57d)"><g transform="matrix(1, 0, 0, 1, 0, 0)"><g clip-path="url(#13bb6fef7c)"><g clip-path="url(#069a55b645)"><g clip-path="url(#d06c1b9c95)"><rect x="-82.5" width="540" fill="#000000" height="539.999987" y="-82.499998" fill-opacity="1"></rect></g></g></g></g></g><g transform="matrix(1, 0, 0, 1, 63, 52)"><g clip-path="url(#5de8541959)"><g fill="#ffffff" fill-opacity="1"><g transform="translate(1.338421, 211.116808)"><g><path d="M 5.71875 -12.296875 C 9.914062 -10.390625 14.300781 -9.289062 18.875 -9 C 23.445312 -8.71875 27.398438 -9.53125 30.734375 -11.4375 C 34.078125 -13.34375 35.75 -16.394531 35.75 -20.59375 L 38.046875 -84.65625 L 5.71875 -87.234375 L 5.71875 -139.578125 L 99.53125 -139.578125 L 98.390625 -14.59375 C 98.203125 -2.195312 95.242188 8.476562 89.515625 17.4375 C 83.796875 26.40625 76.359375 33.175781 67.203125 37.75 C 58.054688 42.332031 48.097656 44.429688 37.328125 44.046875 C 26.554688 43.660156 16.019531 40.320312 5.71875 34.03125 Z M 43.765625 -170.46875 C 43.765625 -176.945312 45.957031 -182.425781 50.34375 -186.90625 C 54.726562 -191.382812 60.160156 -193.625 66.640625 -193.625 C 73.117188 -193.625 78.597656 -191.382812 83.078125 -186.90625 C 87.566406 -182.425781 89.8125 -176.945312 89.8125 -170.46875 C 89.8125 -164.175781 87.566406 -158.785156 83.078125 -154.296875 C 78.597656 -149.816406 73.117188 -147.578125 66.640625 -147.578125 C 60.160156 -147.578125 54.726562 -149.816406 50.34375 -154.296875 C 45.957031 -158.785156 43.765625 -164.175781 43.765625 -170.46875 Z M 43.765625 -170.46875 "></path></g></g></g><g fill="#ffffff" fill-opacity="1"><g transform="translate(124.32468, 211.116808)"><g><path d="M 8.296875 39.46875 L 5.71875 -64.359375 L 7.71875 -139.296875 L 55.484375 -139.296875 L 56.921875 -124.984375 C 60.734375 -130.140625 65.785156 -134.476562 72.078125 -138 C 78.367188 -141.53125 86.1875 -143.296875 95.53125 -143.296875 C 114.21875 -143.296875 128.753906 -137.625 139.140625 -126.28125 C 149.535156 -114.9375 154.539062 -97.726562 154.15625 -74.65625 C 154.15625 -59.207031 152.34375 -45.90625 148.71875 -34.75 C 145.101562 -23.59375 139.050781 -15.054688 130.5625 -9.140625 C 122.082031 -3.234375 110.5 -0.28125 95.8125 -0.28125 C 88.375 -0.28125 81.84375 -1.328125 76.21875 -3.421875 C 70.59375 -5.523438 65.6875 -8.296875 61.5 -11.734375 L 60.0625 39.46875 Z M 69.5 -58.640625 C 69.5 -54.253906 70.785156 -50.960938 73.359375 -48.765625 C 75.929688 -46.566406 79.03125 -45.46875 82.65625 -45.46875 C 86.28125 -45.46875 89.332031 -46.46875 91.8125 -48.46875 C 94.289062 -50.476562 95.53125 -53.867188 95.53125 -58.640625 C 95.53125 -63.210938 94.289062 -66.40625 91.8125 -68.21875 C 89.332031 -70.03125 86.28125 -70.9375 82.65625 -70.9375 C 79.03125 -70.9375 75.929688 -69.835938 73.359375 -67.640625 C 70.785156 -65.453125 69.5 -62.453125 69.5 -58.640625 Z M 69.5 -58.640625 "></path></g></g></g></g></g></svg></svg></g></g></svg></g></svg>